<mxfile host="app.diagrams.net" modified="2023-11-02T02:02:24.364Z" agent="Mozilla/5.0 (Windows NT 10.0; Win64; x64) AppleWebKit/537.36 (KHTML, like Gecko) Chrome/117.0.0.0 Safari/537.36" etag="yJomHlMbKy6xaUpvKxiy" version="22.0.8" type="device">
  <diagram id="R2lEEEUBdFMjLlhIrx00" name="Page-1">
    <mxGraphModel dx="2045" dy="1725" grid="1" gridSize="10" guides="1" tooltips="1" connect="1" arrows="1" fold="1" page="1" pageScale="1" pageWidth="850" pageHeight="1100" math="0" shadow="0" extFonts="Permanent Marker^https://fonts.googleapis.com/css?family=Permanent+Marker">
      <root>
        <mxCell id="0" />
        <mxCell id="1" parent="0" />
        <mxCell id="wEZ45cELayboLmoo7_fT-339" value="Estudiantes" style="swimlane;fontStyle=0;childLayout=stackLayout;horizontal=1;startSize=26;fillColor=default;horizontalStack=0;resizeParent=1;resizeLast=0;collapsible=1;marginBottom=0;swimlaneFillColor=default;align=center;" vertex="1" parent="1">
          <mxGeometry x="40" y="40" width="140" height="130" as="geometry" />
        </mxCell>
        <mxCell id="wEZ45cELayboLmoo7_fT-340" value="ID" style="shape=partialRectangle;top=0;left=0;right=0;bottom=0;align=left;verticalAlign=top;spacingTop=-2;fillColor=none;spacingLeft=64;spacingRight=4;overflow=hidden;rotatable=0;points=[[0,0.5],[1,0.5]];portConstraint=eastwest;dropTarget=0;" vertex="1" parent="wEZ45cELayboLmoo7_fT-339">
          <mxGeometry y="26" width="140" height="26" as="geometry" />
        </mxCell>
        <mxCell id="wEZ45cELayboLmoo7_fT-341" value="PK" style="shape=partialRectangle;top=0;left=0;bottom=0;fillColor=none;align=left;verticalAlign=middle;spacingLeft=4;spacingRight=4;overflow=hidden;rotatable=180;points=[];portConstraint=eastwest;part=1;" vertex="1" connectable="0" parent="wEZ45cELayboLmoo7_fT-340">
          <mxGeometry width="54" height="26" as="geometry" />
        </mxCell>
        <mxCell id="wEZ45cELayboLmoo7_fT-342" value="Nombre" style="shape=partialRectangle;top=0;left=0;right=0;bottom=0;align=left;verticalAlign=top;spacingTop=-2;fillColor=none;spacingLeft=64;spacingRight=4;overflow=hidden;rotatable=0;points=[[0,0.5],[1,0.5]];portConstraint=eastwest;dropTarget=0;" vertex="1" parent="wEZ45cELayboLmoo7_fT-339">
          <mxGeometry y="52" width="140" height="26" as="geometry" />
        </mxCell>
        <mxCell id="wEZ45cELayboLmoo7_fT-343" value="" style="shape=partialRectangle;top=0;left=0;bottom=0;fillColor=none;align=left;verticalAlign=middle;spacingLeft=4;spacingRight=4;overflow=hidden;rotatable=180;points=[];portConstraint=eastwest;part=1;" vertex="1" connectable="0" parent="wEZ45cELayboLmoo7_fT-342">
          <mxGeometry width="54" height="26" as="geometry" />
        </mxCell>
        <mxCell id="wEZ45cELayboLmoo7_fT-344" value="Apellido" style="shape=partialRectangle;top=0;left=0;right=0;bottom=0;align=left;verticalAlign=top;spacingTop=-2;fillColor=none;spacingLeft=64;spacingRight=4;overflow=hidden;rotatable=0;points=[[0,0.5],[1,0.5]];portConstraint=eastwest;dropTarget=0;" vertex="1" parent="wEZ45cELayboLmoo7_fT-339">
          <mxGeometry y="78" width="140" height="26" as="geometry" />
        </mxCell>
        <mxCell id="wEZ45cELayboLmoo7_fT-345" value="" style="shape=partialRectangle;top=0;left=0;bottom=0;fillColor=none;align=left;verticalAlign=middle;spacingLeft=4;spacingRight=4;overflow=hidden;rotatable=180;points=[];portConstraint=eastwest;part=1;" vertex="1" connectable="0" parent="wEZ45cELayboLmoo7_fT-344">
          <mxGeometry width="54" height="26" as="geometry" />
        </mxCell>
        <mxCell id="wEZ45cELayboLmoo7_fT-346" value="Grado" style="shape=partialRectangle;top=0;left=0;right=0;bottom=0;align=left;verticalAlign=top;spacingTop=-2;fillColor=none;spacingLeft=64;spacingRight=4;overflow=hidden;rotatable=0;points=[[0,0.5],[1,0.5]];portConstraint=eastwest;dropTarget=0;" vertex="1" parent="wEZ45cELayboLmoo7_fT-339">
          <mxGeometry y="104" width="140" height="26" as="geometry" />
        </mxCell>
        <mxCell id="wEZ45cELayboLmoo7_fT-347" value="" style="shape=partialRectangle;top=0;left=0;bottom=0;fillColor=none;align=left;verticalAlign=middle;spacingLeft=4;spacingRight=4;overflow=hidden;rotatable=180;points=[];portConstraint=eastwest;part=1;" vertex="1" connectable="0" parent="wEZ45cELayboLmoo7_fT-346">
          <mxGeometry width="54" height="26" as="geometry" />
        </mxCell>
        <mxCell id="wEZ45cELayboLmoo7_fT-348" value="Profesores" style="swimlane;fontStyle=0;childLayout=stackLayout;horizontal=1;startSize=26;fillColor=default;horizontalStack=0;resizeParent=1;resizeLast=0;collapsible=1;marginBottom=0;swimlaneFillColor=default;align=center;" vertex="1" parent="1">
          <mxGeometry x="270" y="40" width="140" height="104" as="geometry" />
        </mxCell>
        <mxCell id="wEZ45cELayboLmoo7_fT-349" value="ID" style="shape=partialRectangle;top=0;left=0;right=0;bottom=0;align=left;verticalAlign=top;spacingTop=-2;fillColor=none;spacingLeft=64;spacingRight=4;overflow=hidden;rotatable=0;points=[[0,0.5],[1,0.5]];portConstraint=eastwest;dropTarget=0;" vertex="1" parent="wEZ45cELayboLmoo7_fT-348">
          <mxGeometry y="26" width="140" height="26" as="geometry" />
        </mxCell>
        <mxCell id="wEZ45cELayboLmoo7_fT-350" value="PK" style="shape=partialRectangle;top=0;left=0;bottom=0;fillColor=none;align=left;verticalAlign=middle;spacingLeft=4;spacingRight=4;overflow=hidden;rotatable=180;points=[];portConstraint=eastwest;part=1;" vertex="1" connectable="0" parent="wEZ45cELayboLmoo7_fT-349">
          <mxGeometry width="54" height="26" as="geometry" />
        </mxCell>
        <mxCell id="wEZ45cELayboLmoo7_fT-351" value="Nombre" style="shape=partialRectangle;top=0;left=0;right=0;bottom=0;align=left;verticalAlign=top;spacingTop=-2;fillColor=none;spacingLeft=64;spacingRight=4;overflow=hidden;rotatable=0;points=[[0,0.5],[1,0.5]];portConstraint=eastwest;dropTarget=0;" vertex="1" parent="wEZ45cELayboLmoo7_fT-348">
          <mxGeometry y="52" width="140" height="26" as="geometry" />
        </mxCell>
        <mxCell id="wEZ45cELayboLmoo7_fT-352" value="" style="shape=partialRectangle;top=0;left=0;bottom=0;fillColor=none;align=left;verticalAlign=middle;spacingLeft=4;spacingRight=4;overflow=hidden;rotatable=180;points=[];portConstraint=eastwest;part=1;" vertex="1" connectable="0" parent="wEZ45cELayboLmoo7_fT-351">
          <mxGeometry width="54" height="26" as="geometry" />
        </mxCell>
        <mxCell id="wEZ45cELayboLmoo7_fT-353" value="Apellido" style="shape=partialRectangle;top=0;left=0;right=0;bottom=0;align=left;verticalAlign=top;spacingTop=-2;fillColor=none;spacingLeft=64;spacingRight=4;overflow=hidden;rotatable=0;points=[[0,0.5],[1,0.5]];portConstraint=eastwest;dropTarget=0;" vertex="1" parent="wEZ45cELayboLmoo7_fT-348">
          <mxGeometry y="78" width="140" height="26" as="geometry" />
        </mxCell>
        <mxCell id="wEZ45cELayboLmoo7_fT-354" value="" style="shape=partialRectangle;top=0;left=0;bottom=0;fillColor=none;align=left;verticalAlign=middle;spacingLeft=4;spacingRight=4;overflow=hidden;rotatable=180;points=[];portConstraint=eastwest;part=1;" vertex="1" connectable="0" parent="wEZ45cELayboLmoo7_fT-353">
          <mxGeometry width="54" height="26" as="geometry" />
        </mxCell>
        <mxCell id="wEZ45cELayboLmoo7_fT-364" value="Cursos" style="swimlane;fontStyle=0;childLayout=stackLayout;horizontal=1;startSize=26;fillColor=default;horizontalStack=0;resizeParent=1;resizeLast=0;collapsible=1;marginBottom=0;swimlaneFillColor=default;align=center;" vertex="1" parent="1">
          <mxGeometry x="300" y="-120" width="150" height="104" as="geometry" />
        </mxCell>
        <mxCell id="wEZ45cELayboLmoo7_fT-365" value="ID" style="shape=partialRectangle;top=0;left=0;right=0;bottom=0;align=left;verticalAlign=top;spacingTop=-2;fillColor=none;spacingLeft=64;spacingRight=4;overflow=hidden;rotatable=0;points=[[0,0.5],[1,0.5]];portConstraint=eastwest;dropTarget=0;" vertex="1" parent="wEZ45cELayboLmoo7_fT-364">
          <mxGeometry y="26" width="150" height="26" as="geometry" />
        </mxCell>
        <mxCell id="wEZ45cELayboLmoo7_fT-366" value="PK" style="shape=partialRectangle;top=0;left=0;bottom=0;fillColor=none;align=left;verticalAlign=middle;spacingLeft=4;spacingRight=4;overflow=hidden;rotatable=180;points=[];portConstraint=eastwest;part=1;" vertex="1" connectable="0" parent="wEZ45cELayboLmoo7_fT-365">
          <mxGeometry width="54" height="26" as="geometry" />
        </mxCell>
        <mxCell id="wEZ45cELayboLmoo7_fT-367" value="Nombre" style="shape=partialRectangle;top=0;left=0;right=0;bottom=0;align=left;verticalAlign=top;spacingTop=-2;fillColor=none;spacingLeft=64;spacingRight=4;overflow=hidden;rotatable=0;points=[[0,0.5],[1,0.5]];portConstraint=eastwest;dropTarget=0;" vertex="1" parent="wEZ45cELayboLmoo7_fT-364">
          <mxGeometry y="52" width="150" height="26" as="geometry" />
        </mxCell>
        <mxCell id="wEZ45cELayboLmoo7_fT-368" value="" style="shape=partialRectangle;top=0;left=0;bottom=0;fillColor=none;align=left;verticalAlign=middle;spacingLeft=4;spacingRight=4;overflow=hidden;rotatable=180;points=[];portConstraint=eastwest;part=1;" vertex="1" connectable="0" parent="wEZ45cELayboLmoo7_fT-367">
          <mxGeometry width="54" height="26" as="geometry" />
        </mxCell>
        <mxCell id="wEZ45cELayboLmoo7_fT-369" value="ProfesorID" style="shape=partialRectangle;top=0;left=0;right=0;bottom=0;align=left;verticalAlign=top;spacingTop=-2;fillColor=none;spacingLeft=64;spacingRight=4;overflow=hidden;rotatable=0;points=[[0,0.5],[1,0.5]];portConstraint=eastwest;dropTarget=0;" vertex="1" parent="wEZ45cELayboLmoo7_fT-364">
          <mxGeometry y="78" width="150" height="26" as="geometry" />
        </mxCell>
        <mxCell id="wEZ45cELayboLmoo7_fT-370" value="FK" style="shape=partialRectangle;top=0;left=0;bottom=0;fillColor=none;align=left;verticalAlign=middle;spacingLeft=4;spacingRight=4;overflow=hidden;rotatable=180;points=[];portConstraint=eastwest;part=1;" vertex="1" connectable="0" parent="wEZ45cELayboLmoo7_fT-369">
          <mxGeometry width="54" height="26" as="geometry" />
        </mxCell>
        <mxCell id="wEZ45cELayboLmoo7_fT-371" style="edgeStyle=orthogonalEdgeStyle;rounded=0;orthogonalLoop=1;jettySize=auto;html=1;entryX=1;entryY=0.5;entryDx=0;entryDy=0;" edge="1" parent="1" source="wEZ45cELayboLmoo7_fT-369" target="wEZ45cELayboLmoo7_fT-349">
          <mxGeometry relative="1" as="geometry" />
        </mxCell>
        <mxCell id="wEZ45cELayboLmoo7_fT-372" value="RegistroCursos" style="swimlane;fontStyle=0;childLayout=stackLayout;horizontal=1;startSize=26;fillColor=default;horizontalStack=0;resizeParent=1;resizeLast=0;collapsible=1;marginBottom=0;swimlaneFillColor=default;align=center;" vertex="1" parent="1">
          <mxGeometry x="270" y="260" width="170" height="78" as="geometry" />
        </mxCell>
        <mxCell id="wEZ45cELayboLmoo7_fT-373" value="EstudianteID" style="shape=partialRectangle;top=0;left=0;right=0;bottom=0;align=left;verticalAlign=top;spacingTop=-2;fillColor=none;spacingLeft=64;spacingRight=4;overflow=hidden;rotatable=0;points=[[0,0.5],[1,0.5]];portConstraint=eastwest;dropTarget=0;" vertex="1" parent="wEZ45cELayboLmoo7_fT-372">
          <mxGeometry y="26" width="170" height="26" as="geometry" />
        </mxCell>
        <mxCell id="wEZ45cELayboLmoo7_fT-374" value="PK" style="shape=partialRectangle;top=0;left=0;bottom=0;fillColor=none;align=left;verticalAlign=middle;spacingLeft=4;spacingRight=4;overflow=hidden;rotatable=180;points=[];portConstraint=eastwest;part=1;" vertex="1" connectable="0" parent="wEZ45cELayboLmoo7_fT-373">
          <mxGeometry width="54" height="26" as="geometry" />
        </mxCell>
        <mxCell id="wEZ45cELayboLmoo7_fT-375" value="CursoID" style="shape=partialRectangle;top=0;left=0;right=0;bottom=0;align=left;verticalAlign=top;spacingTop=-2;fillColor=none;spacingLeft=64;spacingRight=4;overflow=hidden;rotatable=0;points=[[0,0.5],[1,0.5]];portConstraint=eastwest;dropTarget=0;" vertex="1" parent="wEZ45cELayboLmoo7_fT-372">
          <mxGeometry y="52" width="170" height="26" as="geometry" />
        </mxCell>
        <mxCell id="wEZ45cELayboLmoo7_fT-376" value="PK" style="shape=partialRectangle;top=0;left=0;bottom=0;fillColor=none;align=left;verticalAlign=middle;spacingLeft=4;spacingRight=4;overflow=hidden;rotatable=180;points=[];portConstraint=eastwest;part=1;" vertex="1" connectable="0" parent="wEZ45cELayboLmoo7_fT-375">
          <mxGeometry width="54" height="26" as="geometry" />
        </mxCell>
        <mxCell id="wEZ45cELayboLmoo7_fT-377" style="edgeStyle=orthogonalEdgeStyle;rounded=0;orthogonalLoop=1;jettySize=auto;html=1;entryX=1;entryY=0.5;entryDx=0;entryDy=0;" edge="1" parent="1" source="wEZ45cELayboLmoo7_fT-373" target="wEZ45cELayboLmoo7_fT-340">
          <mxGeometry relative="1" as="geometry" />
        </mxCell>
        <mxCell id="wEZ45cELayboLmoo7_fT-378" style="edgeStyle=orthogonalEdgeStyle;rounded=0;orthogonalLoop=1;jettySize=auto;html=1;entryX=1;entryY=0.5;entryDx=0;entryDy=0;" edge="1" parent="1" source="wEZ45cELayboLmoo7_fT-375" target="wEZ45cELayboLmoo7_fT-365">
          <mxGeometry relative="1" as="geometry" />
        </mxCell>
        <mxCell id="wEZ45cELayboLmoo7_fT-379" value="Notas" style="swimlane;fontStyle=0;childLayout=stackLayout;horizontal=1;startSize=26;fillColor=default;horizontalStack=0;resizeParent=1;resizeLast=0;collapsible=1;marginBottom=0;swimlaneFillColor=default;align=center;" vertex="1" parent="1">
          <mxGeometry x="-200" y="40" width="170" height="104" as="geometry" />
        </mxCell>
        <mxCell id="wEZ45cELayboLmoo7_fT-380" value="EstudianteID" style="shape=partialRectangle;top=0;left=0;right=0;bottom=0;align=left;verticalAlign=top;spacingTop=-2;fillColor=none;spacingLeft=64;spacingRight=4;overflow=hidden;rotatable=0;points=[[0,0.5],[1,0.5]];portConstraint=eastwest;dropTarget=0;" vertex="1" parent="wEZ45cELayboLmoo7_fT-379">
          <mxGeometry y="26" width="170" height="26" as="geometry" />
        </mxCell>
        <mxCell id="wEZ45cELayboLmoo7_fT-381" value="FK" style="shape=partialRectangle;top=0;left=0;bottom=0;fillColor=none;align=left;verticalAlign=middle;spacingLeft=4;spacingRight=4;overflow=hidden;rotatable=180;points=[];portConstraint=eastwest;part=1;" vertex="1" connectable="0" parent="wEZ45cELayboLmoo7_fT-380">
          <mxGeometry width="54" height="26" as="geometry" />
        </mxCell>
        <mxCell id="wEZ45cELayboLmoo7_fT-382" value="CursoID" style="shape=partialRectangle;top=0;left=0;right=0;bottom=0;align=left;verticalAlign=top;spacingTop=-2;fillColor=none;spacingLeft=64;spacingRight=4;overflow=hidden;rotatable=0;points=[[0,0.5],[1,0.5]];portConstraint=eastwest;dropTarget=0;" vertex="1" parent="wEZ45cELayboLmoo7_fT-379">
          <mxGeometry y="52" width="170" height="26" as="geometry" />
        </mxCell>
        <mxCell id="wEZ45cELayboLmoo7_fT-383" value="FK" style="shape=partialRectangle;top=0;left=0;bottom=0;fillColor=none;align=left;verticalAlign=middle;spacingLeft=4;spacingRight=4;overflow=hidden;rotatable=180;points=[];portConstraint=eastwest;part=1;" vertex="1" connectable="0" parent="wEZ45cELayboLmoo7_fT-382">
          <mxGeometry width="54" height="26" as="geometry" />
        </mxCell>
        <mxCell id="wEZ45cELayboLmoo7_fT-384" value="Nota" style="shape=partialRectangle;top=0;left=0;right=0;bottom=0;align=left;verticalAlign=top;spacingTop=-2;fillColor=none;spacingLeft=64;spacingRight=4;overflow=hidden;rotatable=0;points=[[0,0.5],[1,0.5]];portConstraint=eastwest;dropTarget=0;" vertex="1" parent="wEZ45cELayboLmoo7_fT-379">
          <mxGeometry y="78" width="170" height="26" as="geometry" />
        </mxCell>
        <mxCell id="wEZ45cELayboLmoo7_fT-385" value="" style="shape=partialRectangle;top=0;left=0;bottom=0;fillColor=none;align=left;verticalAlign=middle;spacingLeft=4;spacingRight=4;overflow=hidden;rotatable=180;points=[];portConstraint=eastwest;part=1;" vertex="1" connectable="0" parent="wEZ45cELayboLmoo7_fT-384">
          <mxGeometry width="54" height="26" as="geometry" />
        </mxCell>
        <mxCell id="wEZ45cELayboLmoo7_fT-386" style="edgeStyle=orthogonalEdgeStyle;rounded=0;orthogonalLoop=1;jettySize=auto;html=1;" edge="1" parent="1" source="wEZ45cELayboLmoo7_fT-380" target="wEZ45cELayboLmoo7_fT-340">
          <mxGeometry relative="1" as="geometry" />
        </mxCell>
        <mxCell id="wEZ45cELayboLmoo7_fT-387" style="edgeStyle=orthogonalEdgeStyle;rounded=0;orthogonalLoop=1;jettySize=auto;html=1;entryX=0;entryY=0.5;entryDx=0;entryDy=0;" edge="1" parent="1" source="wEZ45cELayboLmoo7_fT-382" target="wEZ45cELayboLmoo7_fT-365">
          <mxGeometry relative="1" as="geometry">
            <Array as="points">
              <mxPoint x="-230" y="105" />
              <mxPoint x="-230" y="-81" />
            </Array>
          </mxGeometry>
        </mxCell>
      </root>
    </mxGraphModel>
  </diagram>
</mxfile>
